<svg xmlns="http://www.w3.org/2000/svg" viewBox="0 0 755.43 160.82">
  <defs>
    <style>
      .cls-1 {
        fill: #271952;
      }
    </style>
  </defs>
  <g id="Layer_2" data-name="Layer 2">
    <g id="Laag_1" data-name="Laag 1">
      <path class="cls-1"
        d="M163.88,0A2.19,2.19,0,0,0,162,3.3L204.55,77a3.44,3.44,0,0,1,0,3.4l-44.46,77a2.27,2.27,0,0,0,2,3.41h67.67a6.87,6.87,0,0,0,5.91-3.41l43-74.43a8.57,8.57,0,0,0,0-8.54L237.53,3.3A6.62,6.62,0,0,0,231.81,0Z" />
      <path class="cls-1"
        d="M89.34,157.52a2.2,2.2,0,0,0,3.81,0l45.5-78.78a6.85,6.85,0,0,0,0-6.84L99.11,3.42A6.88,6.88,0,0,0,93.18,0h-91A2.2,2.2,0,0,0,.3,3.3Z" />
      <path class="cls-1"
        d="M430.81,130.41c-4.4,4.4-10.44,6.52-22.34,6.52H370.32c-11.9,0-18.1-2.12-22.5-6.52-6.69-6.52-12.39-19.08-12.39-50.54s5.7-44,12.39-50.55c4.4-4.4,10.6-6.52,22.5-6.52h38.15c11.9,0,17.94,2.12,22.34,6.52C436.51,35,439.28,45,439.61,68H406.84c-.49-14.19-1.79-16.31-2.77-17.29s-2.61-1.3-7.5-1.3H382.06c-4.89,0-6.52.32-7.5,1.3-1.14,1.14-3.1,4.24-3.1,29.19s2,28,3.1,29.18c1,1,2.61,1.31,7.5,1.31h14.51c4.89,0,6.52-.33,7.5-1.31s2.28-3.1,2.77-17.77h32.77C439.28,114.59,436.68,124.7,430.81,130.41Z" />
      <path class="cls-1"
        d="M532.55,112.31H497.49l-7,24.62H455.43L490,33.07c2.94-8.64,4.24-10.76,12.07-10.76h28c7.83,0,9.3,2.29,12.07,10.76l34.56,103.86h-37ZM504.34,87.86H525.7l-9.78-33.59h-1.8Z" />
      <path class="cls-1"
        d="M686.79,96.33c-4.08,3.59-10.93,5.06-21.2,5.06H632v35.54H597V22.8h68.64c10.27,0,17.12,1.47,21.2,5.06,5.54,4.89,10.43,12.39,10.43,34.24S692.33,91.44,686.79,96.33Zm-37.5-20.87c6.36,0,8.15-.32,9.13-1.3,1.79-1.63,2.61-3.91,2.61-12.23s-1-10.43-2.61-11.9c-1.14-1-2.77-1.3-9.13-1.3H632V75.46Z" />
      <path class="cls-1" d="M720.38,136.93V22.8h35V136.93Z" />
    </g>
  </g>
</svg>